<svg width="22" height="22" viewBox="0 0 22 22" fill="none" xmlns="http://www.w3.org/2000/svg">
<path d="M8.63456 11.8697C8.56751 11.8697 7.16089 11.8701 6.51214 11.8695C6.17816 11.8693 6.059 11.7493 6.059 11.4132C6.05857 10.5498 6.05836 9.68643 6.059 8.82307C6.05921 8.49122 6.1852 8.36458 6.51492 8.36437C7.16367 8.36394 8.5626 8.36416 8.63456 8.36416C8.63456 8.30501 8.63435 7.05854 8.63456 6.48454C8.63499 5.63591 8.78639 4.82358 9.21754 4.07981C9.65894 3.31852 10.3013 2.79704 11.1245 2.49552C11.6517 2.30226 12.1991 2.22517 12.7585 2.22474C13.4585 2.22431 14.1585 2.22495 14.8588 2.22624C15.1596 2.22666 15.2931 2.3597 15.2937 2.66272C15.295 3.47483 15.295 4.28694 15.2937 5.09884C15.2933 5.40507 15.1654 5.52807 14.8577 5.53148C14.2839 5.53768 13.7097 5.53383 13.1365 5.5569C12.5576 5.5569 12.2531 5.83963 12.2531 6.43884C12.2392 7.07264 12.2473 7.70708 12.2473 8.36394C12.3016 8.36394 13.9491 8.36373 14.7191 8.36394C15.0689 8.36394 15.1885 8.48417 15.1885 8.83588C15.1885 9.69454 15.1883 10.5534 15.1876 11.4121C15.1874 11.7587 15.0751 11.8693 14.7232 11.8695C13.9531 11.8699 12.312 11.8697 12.2403 11.8697V18.8195C12.2403 19.19 12.1237 19.3081 11.7581 19.3081C10.8667 19.3081 9.9752 19.3083 9.08386 19.3081C8.76077 19.3081 8.63478 19.1826 8.63478 18.8595C8.63456 16.5961 8.63456 11.9492 8.63456 11.8697Z" fill="#6F00EB"/>
</svg>
