<svg width="18" height="18" viewBox="0 0 18 18" fill="none" xmlns="http://www.w3.org/2000/svg">
<g clip-path="url(#clip0_116_1032)">
<path d="M12.2743 0.0869141H5.20811C2.33635 0.0869141 0 2.42326 0 5.29502V12.3612C0 15.233 2.33635 17.5693 5.20811 17.5693H12.2743C15.1461 17.5693 17.4824 15.233 17.4824 12.3612V5.29502C17.4824 2.42326 15.146 0.0869141 12.2743 0.0869141ZM15.7237 12.3612C15.7237 14.2663 14.1793 15.8106 12.2743 15.8106H5.20811C3.30309 15.8106 1.75873 14.2663 1.75873 12.3612V5.29502C1.75873 3.38997 3.30309 1.84565 5.20811 1.84565H12.2743C14.1793 1.84565 15.7237 3.38997 15.7237 5.29502V12.3612Z" fill="#6F00EB"/>
<path d="M8.74033 4.30664C6.24713 4.30664 4.21875 6.33502 4.21875 8.82819C4.21875 11.3214 6.24713 13.3498 8.74033 13.3498C11.2335 13.3498 13.2619 11.3214 13.2619 8.82819C13.2619 6.33498 11.2335 4.30664 8.74033 4.30664ZM8.74033 11.5911C7.21444 11.5911 5.97748 10.3541 5.97748 8.82822C5.97748 7.30233 7.21447 6.06537 8.74033 6.06537C10.2662 6.06537 11.5032 7.30233 11.5032 8.82822C11.5032 10.3541 10.2662 11.5911 8.74033 11.5911Z" fill="#6F00EB"/>
<path d="M13.271 5.42474C13.8693 5.42474 14.3544 4.93966 14.3544 4.34128C14.3544 3.7429 13.8693 3.25781 13.271 3.25781C12.6726 3.25781 12.1875 3.7429 12.1875 4.34128C12.1875 4.93966 12.6726 5.42474 13.271 5.42474Z" fill="#6F00EB"/>
</g>
<defs>
<clipPath id="clip0_116_1032">
<rect width="17.4824" height="17.4824" fill="white" transform="translate(0 0.0878906)"/>
</clipPath>
</defs>
</svg>
