<svg width="18" height="19" viewBox="0 0 18 19" fill="none" xmlns="http://www.w3.org/2000/svg">
<g clip-path="url(#clip0_116_1007)">
<path d="M17.9959 18.0881L18.0004 18.0873V11.4858C18.0004 8.2563 17.3052 5.76855 13.5297 5.76855C11.7147 5.76855 10.4967 6.76455 9.99944 7.7088H9.94694V6.07005H6.36719V18.0873H10.0947V12.1368C10.0947 10.5701 10.3917 9.05506 12.3319 9.05506C14.2437 9.05506 14.2722 10.8431 14.2722 12.2373V18.0881H17.9959Z" fill="#6F00EB"/>
<path d="M0.296875 6.07031H4.02888V18.0876H0.296875V6.07031Z" fill="#6F00EB"/>
<path d="M2.1615 0.0878906C0.96825 0.0878906 0 1.05614 0 2.24939C0 3.44264 0.96825 4.43114 2.1615 4.43114C3.35475 4.43114 4.323 3.44264 4.323 2.24939C4.32225 1.05614 3.354 0.0878906 2.1615 0.0878906Z" fill="#6F00EB"/>
</g>
<defs>
<clipPath id="clip0_116_1007">
<rect width="18" height="18" fill="white" transform="translate(0 0.0878906)"/>
</clipPath>
</defs>
</svg>
