<svg width="61" height="61" viewBox="0 0 61 61" fill="none" xmlns="http://www.w3.org/2000/svg">
<path d="M10.2948 20.3305C4.77413 20.3305 0.294922 15.853 0.294922 10.33C0.294922 4.80705 4.77413 0.330078 10.2948 0.330078C15.8171 0.330078 20.2946 4.80762 20.2946 10.33C20.2946 15.8523 24.7727 20.3305 30.2951 20.3305C35.8173 20.3305 40.2948 15.853 40.2948 10.3306C40.2948 4.8082 44.7729 0.330078 50.2952 0.330078C55.8176 0.330078 60.2951 4.80762 60.2951 10.33C60.2951 15.8523 55.8176 20.3299 50.2952 20.3299C33.7248 20.3299 20.2952 33.7655 20.2952 50.3297C20.2952 55.8493 15.8177 60.3297 10.2953 60.3297C4.773 60.3297 0.294922 55.8532 0.294922 50.3309C0.294922 44.8085 4.77241 40.3303 10.2948 40.3303C15.8171 40.3303 20.2934 35.8528 20.2934 30.3305C20.2934 24.808 15.8177 20.3305 10.2948 20.3305Z" fill="#6F00EB"/>
<path d="M27.7969 44.0807C27.7969 35.101 35.0708 27.8306 44.0475 27.8306C53.0242 27.831 60.2969 35.101 60.2969 44.0807C60.2969 53.0564 53.0242 60.3314 44.0464 60.3314C35.0696 60.3314 27.7969 53.0564 27.7969 44.0807Z" fill="#6F00EB"/>
</svg>
