<svg width="65" height="64" viewBox="0 0 65 64" fill="none" xmlns="http://www.w3.org/2000/svg">
<path d="M31.7034 41.1124C34.4486 38.6344 36.181 35.0364 36.181 31.0401C36.181 27.0429 34.4481 23.4469 31.7034 20.9415C29.3046 18.757 26.1087 17.4242 22.5911 17.4242C15.0781 17.4242 8.97461 23.5266 8.97461 31.0396C8.97461 38.5546 15.0781 44.6291 22.5911 44.6291C26.1089 44.6297 29.3046 43.2979 31.7034 41.1124Z" fill="#009DDD"/>
<path d="M31.7031 41.1123C34.4484 38.6343 36.1808 35.0363 36.1808 31.0401C36.1808 27.0429 34.4478 23.4469 31.7031 20.9414V41.1123Z" fill="#009DDD"/>
<path d="M40.8434 17.4248C37.3252 17.4248 34.1273 18.7576 31.7027 20.9421C31.2237 21.3947 30.7712 21.8746 30.3435 22.382H33.0877C33.4615 22.8335 33.8079 23.3409 34.1273 23.8198H29.3038C29.0117 24.2998 28.745 24.7802 28.5043 25.2588H34.8999C35.1142 25.7378 35.326 26.2192 35.486 26.6982H27.9471C27.7866 27.1777 27.653 27.6585 27.5469 28.1635H35.8862C36.0722 29.0696 36.1803 30.056 36.1803 31.0407C36.1803 32.533 35.9391 33.9992 35.4861 35.3579H27.9473C28.1058 35.8368 28.2927 36.3173 28.505 36.7968H34.9006C34.6613 37.2767 34.4206 37.7826 34.1275 38.2358H29.3039C29.6253 38.7422 29.9708 39.2216 30.3435 39.6747H33.0877C32.6621 40.1811 32.2085 40.6611 31.7027 41.1137C34.1275 43.2992 37.3252 44.6309 40.8434 44.6309C48.3573 44.6309 54.4329 38.5564 54.4329 31.0414C54.4323 23.5273 48.3573 17.4248 40.8434 17.4248Z" fill="#ED1C2E"/>
<path d="M49.7422 33.9714C49.7422 33.7311 49.9565 33.5453 50.1957 33.5453C50.436 33.5453 50.6218 33.7312 50.6218 33.9714C50.6218 34.2121 50.4359 34.4249 50.1957 34.4249C49.9565 34.4249 49.7422 34.2121 49.7422 33.9714ZM50.1957 34.3182C50.3817 34.3182 50.5151 34.1583 50.5151 33.9714C50.5151 33.785 50.3815 33.6514 50.1957 33.6514C50.0089 33.6514 49.8503 33.785 49.8503 33.9714C49.8503 34.1583 50.0089 34.3182 50.1957 34.3182ZM50.1423 34.1583H50.0362V33.7849H50.1956C50.2479 33.7849 50.2754 33.7849 50.3027 33.8118C50.3291 33.8382 50.355 33.8642 50.355 33.8916C50.355 33.9454 50.3287 33.9987 50.2753 33.9987L50.355 34.1581H50.2479L50.1956 34.0245H50.1423V34.1583ZM50.1423 33.9454H50.1956C50.1956 33.9454 50.222 33.9454 50.2479 33.9454C50.2479 33.9454 50.2479 33.918 50.2479 33.8916V33.8642C50.2216 33.8642 50.1956 33.8642 50.1692 33.8642H50.1418V33.9454H50.1423Z" fill="white"/>
<path d="M20.8848 34.425H19.1802L20.1924 29.1224L17.8748 34.425H16.3279L16.0621 29.1488L15.05 34.425H13.5039L14.8102 27.524H17.4737L17.6067 31.7864L19.4743 27.524H22.216L20.8848 34.425Z" fill="white"/>
<path d="M39.8036 34.3456C39.3237 34.4777 38.9772 34.531 38.5769 34.531C37.7251 34.531 37.2441 34.1049 37.2441 33.3063C37.2441 33.1458 37.2716 32.9853 37.2974 32.799L37.4036 32.2393L37.4854 31.8137L38.2574 27.5244H39.9356L39.6969 28.8023H40.5751L40.3358 30.1624H39.4567L39.0306 32.5065C39.0032 32.6132 38.9773 32.6934 38.9773 32.7462C38.9773 33.0398 39.1642 33.1718 39.5645 33.1718C39.7504 33.1718 39.9089 33.1454 40.0171 33.1189L39.8036 34.3456Z" fill="white"/>
<path d="M44.7335 28.8569C44.5999 28.8025 44.5741 28.8025 44.5476 28.8025C44.4669 28.7751 44.414 28.7751 44.414 28.7496C44.3596 28.7496 44.3069 28.7496 44.228 28.7496C43.6673 28.7496 43.2681 28.9894 42.7612 29.6547L42.9207 28.8025H41.3746L40.3359 34.425H42.0414C42.654 30.9865 42.8942 30.3744 43.7196 30.3744C43.7729 30.3744 43.8541 30.4013 43.933 30.4013L44.1199 30.4542L44.7335 28.8569Z" fill="white"/>
<path d="M33.0886 30.5871C33.0886 31.2804 33.4888 31.7863 34.3949 32.1337C35.0882 32.4258 35.1949 32.5065 35.1949 32.7732C35.1949 33.1191 34.8744 33.2796 34.2085 33.2796C33.7021 33.2796 33.2216 33.1994 32.6625 33.0404L32.4492 34.3461H32.5299L32.822 34.4254C32.9282 34.4254 33.0876 34.4523 33.2747 34.4523C33.6749 34.5046 33.9949 34.5046 34.2346 34.5046C36.0199 34.5046 36.8726 33.9186 36.8726 32.6401C36.8726 31.867 36.5262 31.4145 35.6471 31.0681C34.9269 30.8014 34.8476 30.7216 34.8476 30.4551C34.8476 30.163 35.1406 30.0025 35.7004 30.0025C36.0198 30.0025 36.4987 30.0299 36.925 30.0818L37.1653 28.8033C36.7127 28.7246 36.0468 28.6971 35.673 28.6971C33.7554 28.6962 33.0886 29.5484 33.0886 30.5871Z" fill="white"/>
<path d="M26.3726 34.4249H24.9865L25.014 33.8378C24.5879 34.2913 24.0017 34.5042 23.2287 34.5042C22.3236 34.5042 21.6836 33.8916 21.6836 32.9856C21.6836 31.6259 22.7746 30.8269 24.6681 30.8269C24.8529 30.8269 25.0936 30.8269 25.3603 30.8544C25.4136 30.668 25.4136 30.5872 25.4136 30.5079C25.4136 30.1351 25.1195 30.0015 24.3205 30.0015C23.8406 30.0015 23.3093 30.0548 22.9355 30.1351L22.6963 30.2153L22.5358 30.2413L22.775 28.9893C23.6288 28.775 24.1611 28.6963 24.8015 28.6963C26.2658 28.6963 27.0125 29.2551 27.0125 30.3205C27.0125 30.6141 26.9861 30.8273 26.88 31.4405L26.5335 33.4391L26.4802 33.785L26.4259 34.0791L26.3995 34.2646L26.3726 34.4249ZM25.147 31.9195C24.9591 31.8931 24.8804 31.8931 24.7742 31.8931C23.8143 31.8931 23.3353 32.1861 23.3353 32.7464C23.3353 33.0923 23.5476 33.3324 23.9204 33.3324C24.6148 33.3324 25.1201 32.7464 25.147 31.9195Z" fill="white"/>
<path d="M31.9413 34.2912C31.3561 34.4512 30.7964 34.5305 30.2093 34.5305C28.3198 34.5305 27.332 33.6508 27.332 31.999C27.332 30.0801 28.585 28.6682 30.2905 28.6682C31.6755 28.6682 32.5568 29.4677 32.5568 30.6932C32.5568 31.1188 32.5024 31.5205 32.3699 32.0793H28.9842C28.9842 32.1855 28.9842 32.2119 28.9842 32.2662C28.9842 32.9057 29.4642 33.2516 30.4501 33.2516C31.0631 33.2516 31.6224 33.1454 32.2079 32.9062L31.9413 34.2912ZM31.0362 30.9614C31.0362 30.8543 31.0362 30.7471 31.0362 30.6678C31.0362 30.2152 30.7421 29.9476 30.2367 29.9476C29.7034 29.9476 29.3306 30.3204 29.1697 30.9614H31.0362Z" fill="white"/>
<path d="M50.0085 31.8664C49.7418 33.7304 48.4365 34.5568 46.7035 34.5568C44.813 34.5568 44.041 33.412 44.041 31.9731C44.041 30.001 45.3453 28.6407 47.3703 28.6407C49.1292 28.6407 50.0618 29.7602 50.0618 31.1726C50.0623 31.5211 50.0623 31.547 50.0085 31.8664ZM48.2505 31.1462C48.2505 30.5602 48.0102 30.0288 47.3191 30.0288C46.4643 30.0288 45.9321 31.0401 45.9321 31.9466C45.9321 32.6932 46.3058 33.1991 46.892 33.1991C47.2648 33.1991 48.0643 32.6932 48.1974 31.8405C48.2505 31.6263 48.2505 31.3875 48.2505 31.1462Z" fill="white"/>
</svg>
