<svg width="39" height="39" viewBox="0 0 39 39" fill="none" xmlns="http://www.w3.org/2000/svg">
<g clip-path="url(#clip0_211_972)">
<path fill-rule="evenodd" clip-rule="evenodd" d="M0 0H39V39H0V0Z" fill="white"/>
<path fill-rule="evenodd" clip-rule="evenodd" d="M19.5082 26.9183C21.2618 28.534 23.6167 29.5141 26.1782 29.5141C31.6793 29.5141 36.1317 25.0273 36.1317 19.5088C36.1317 13.9735 31.6793 9.48645 26.1782 9.48645C23.6167 9.48645 21.2618 10.4663 19.5082 12.0823C17.4968 13.9217 16.2246 16.5692 16.2246 19.5088C16.2248 22.4484 17.4968 25.0961 19.5082 26.9183Z" fill="#E9B040"/>
<path fill-rule="evenodd" clip-rule="evenodd" d="M34.8086 25.0786C34.8086 24.9067 34.9462 24.7693 35.118 24.7693C35.3069 24.7693 35.4443 24.9069 35.4443 25.0786C35.4443 25.268 35.3067 25.4054 35.118 25.4054C34.9462 25.4054 34.8086 25.268 34.8086 25.0786ZM35.118 25.3368C35.2555 25.3368 35.3755 25.2162 35.3755 25.0788C35.3755 24.9415 35.2553 24.8383 35.118 24.8383C34.9974 24.8383 34.8774 24.9415 34.8774 25.0788C34.8774 25.2162 34.9976 25.3368 35.118 25.3368ZM35.0836 25.2336H35.0148V24.9413H35.135C35.1524 24.9413 35.1867 24.9413 35.2037 24.9587C35.2381 24.9757 35.2381 24.9931 35.2381 25.0275C35.2381 25.0619 35.2211 25.0963 35.1867 25.0963L35.2555 25.2338H35.1693L35.135 25.1132H35.0836V25.2336V25.0617H35.1524C35.1693 25.0617 35.1693 25.0443 35.1693 25.0273C35.1693 25.0099 35.1693 25.0099 35.1524 24.9929H35.0836V25.2336Z" fill="#E9B040"/>
<path fill-rule="evenodd" clip-rule="evenodd" d="M22.7227 18.4431C22.6883 18.0822 22.6195 17.7384 22.5507 17.3773H16.4651C16.5339 17.0163 16.637 16.6725 16.74 16.3286H22.2585C22.1388 15.9667 22.0011 15.611 21.846 15.2627H17.17C17.342 14.8986 17.5313 14.5429 17.7373 14.1969H21.2617C21.0349 13.8297 20.7822 13.4793 20.5054 13.1482H18.4938C18.805 12.7682 19.144 12.4119 19.5081 12.0823C17.7375 10.4835 15.3994 9.48645 12.8207 9.48645C7.33682 9.48645 2.86719 13.9735 2.86719 19.5088C2.86719 25.0273 7.33682 29.5141 12.8207 29.5141C15.3994 29.5141 17.7373 28.534 19.5081 26.9183C19.8666 26.5944 20.2 26.2438 20.5054 25.8694H18.4938C18.2186 25.5256 17.9781 25.1819 17.7373 24.8035H21.2617C21.4833 24.4636 21.6787 24.1073 21.8462 23.7376H17.17C17.0152 23.3939 16.8606 23.0501 16.74 22.6888H22.2585C22.3787 22.345 22.4649 21.9843 22.5505 21.6229C22.6193 21.2792 22.6881 20.9184 22.7225 20.557C22.7573 20.2085 22.7746 19.8584 22.7743 19.5082C22.7743 19.1478 22.7571 18.7869 22.7227 18.4431Z" fill="#CC2131"/>
<path fill-rule="evenodd" clip-rule="evenodd" d="M34.8086 21.8293C34.8086 21.6403 34.9462 21.5029 35.118 21.5029C35.3069 21.5029 35.4443 21.6405 35.4443 21.8293C35.4443 22.0013 35.3067 22.156 35.118 22.156C34.9462 22.156 34.8086 22.0011 34.8086 21.8293ZM35.118 22.0699C35.2555 22.0699 35.3755 21.9667 35.3755 21.8293C35.3755 21.6919 35.2553 21.5887 35.118 21.5887C34.9974 21.5887 34.8774 21.6919 34.8774 21.8293C34.8774 21.9667 34.9976 22.0699 35.118 22.0699ZM35.0836 21.9667H35.0148V21.6917H35.2037C35.2381 21.7091 35.2381 21.7435 35.2381 21.7779C35.2381 21.7949 35.2211 21.8293 35.1867 21.8467L35.2555 21.9669H35.1693L35.135 21.8637H35.0836V21.9667V21.8121H35.118C35.135 21.8121 35.1524 21.8121 35.1524 21.7947C35.1693 21.7947 35.1693 21.7777 35.1693 21.7603C35.1693 21.7603 35.1693 21.7433 35.1524 21.7433C35.1524 21.7259 35.135 21.7433 35.118 21.7433H35.0836V21.9667Z" fill="white"/>
<path fill-rule="evenodd" clip-rule="evenodd" d="M16.1221 22.3972C15.7956 22.483 15.5548 22.5348 15.3142 22.5348C14.7985 22.5348 14.4889 22.208 14.4889 21.6235C14.4889 21.5033 14.5061 21.3829 14.5233 21.2453L14.5921 20.8502L14.6437 20.5234L15.1078 17.7042H16.1393L16.0189 18.3231H16.6722L16.5175 19.3546H15.8641L15.5892 21.0392C15.572 21.1254 15.572 21.1767 15.572 21.2111C15.572 21.4347 15.6752 21.5205 15.9329 21.5205C16.0533 21.5205 16.1563 21.5035 16.2595 21.4861L16.1221 22.3972ZM19.4573 22.3628C19.0791 22.466 18.7354 22.5174 18.357 22.5174C17.188 22.5174 16.5175 21.8984 16.5175 20.6782C16.5175 19.2512 17.3084 18.2197 18.4084 18.2197C19.2851 18.2197 19.8524 18.8042 19.8524 19.7151C19.8524 20.0249 19.818 20.3171 19.7323 20.7296H17.5833C17.5661 20.7984 17.5661 20.8328 17.5661 20.8672C17.5661 21.3485 17.8927 21.5891 18.5116 21.5891C18.907 21.5891 19.2507 21.5033 19.6291 21.3315L19.4573 22.3628ZM18.8212 19.9045V19.6981C18.8212 19.3544 18.632 19.1652 18.3054 19.1652C17.9615 19.1652 17.7209 19.423 17.6177 19.9043L18.8212 19.9045ZM7.87035 22.4486H6.80449L7.42341 18.5465L6.03099 22.4486H5.29188L5.20589 18.5637L4.55257 22.4486H3.50391L4.3462 17.3774H5.9106L5.945 20.5064L6.99366 17.3774H8.71285L7.87035 22.4486ZM10.4664 20.6094C10.3632 20.592 10.3288 20.592 10.2601 20.592C9.64113 20.592 9.33177 20.8326 9.33177 21.2109C9.33177 21.4689 9.48655 21.6409 9.72712 21.6409C10.2429 21.6409 10.449 21.2109 10.4664 20.6094ZM11.3259 22.4486H10.3976L10.4148 22.019C10.1741 22.3454 9.84751 22.5174 9.28018 22.5174C8.76444 22.5174 8.3175 22.0534 8.3175 21.3829C8.3175 21.1939 8.3519 21.0222 8.40349 20.8502C8.57527 20.2139 9.21139 19.8187 10.1913 19.8013C10.3116 19.8013 10.5006 19.8013 10.6726 19.8187C10.7068 19.6811 10.7068 19.6293 10.7068 19.5436C10.7068 19.2684 10.4834 19.1824 9.98489 19.1824C9.67553 19.1824 9.33157 19.234 9.091 19.32L8.93622 19.3544L8.86743 19.3714L9.02221 18.4431C9.52075 18.2883 9.8817 18.2197 10.2773 18.2197C11.2055 18.2197 11.7041 18.6495 11.7041 19.4402C11.7041 19.6465 11.7213 19.8013 11.6525 20.2483L11.4119 21.7267L11.3775 21.9846L11.3603 22.191L11.3431 22.3286L11.3259 22.4486ZM24.649 18.3573C24.9584 18.3573 25.2336 18.4433 25.6117 18.6323L25.8007 17.532C25.6975 17.4804 25.6631 17.4804 25.5257 17.4288L25.0962 17.3084C24.9586 17.274 24.7868 17.2568 24.5974 17.2568C24.0643 17.2568 23.7549 17.274 23.4286 17.4632C23.2566 17.5836 23.033 17.7384 22.7923 18.0133L22.6547 17.9789L21.5544 18.7524L21.6062 18.3227H20.4714L19.8012 22.4484H20.8845L21.2797 20.2311C21.2797 20.2311 21.4346 19.9213 21.5032 19.8185C21.7096 19.5605 21.8814 19.5605 22.1048 19.5605H22.1909C22.1549 19.8225 22.1376 20.0868 22.1392 20.3512C22.1392 21.6921 22.8955 22.5346 24.0645 22.5346C24.3569 22.5346 24.615 22.5002 25.0102 22.397L25.1996 21.2281C24.8558 21.4171 24.5463 21.5031 24.2883 21.5031C23.6524 21.5031 23.2738 21.0218 23.2738 20.2655C23.2734 19.148 23.8409 18.3573 24.649 18.3573ZM33.7771 17.3774L33.5367 18.8214C33.2787 18.4261 32.9692 18.2369 32.5566 18.2369C31.9891 18.2369 31.4564 18.5635 31.1296 19.1824V19.1654L30.4421 18.7526L30.5109 18.3229H29.359L28.7057 22.4486H29.7716L30.1327 20.2313C30.1327 20.2313 30.4077 19.9215 30.4765 19.8187C30.6485 19.6123 30.8203 19.5777 30.9578 19.5607C30.8377 19.9045 30.7689 20.3171 30.7689 20.7814C30.7689 21.8129 31.3016 22.5004 32.0923 22.5004C32.4878 22.5004 32.7972 22.3628 33.0894 22.036L33.038 22.4486H34.0524L34.8775 17.3774H33.7771ZM32.4536 21.4689C32.0925 21.4689 31.9035 21.1939 31.9035 20.6608C31.9035 19.8527 32.2473 19.2684 32.7456 19.2684C33.1238 19.2684 33.3131 19.5607 33.3131 20.0765C33.3131 20.9016 32.9694 21.4689 32.4536 21.4689ZM27.4857 20.6094C27.3825 20.592 27.3481 20.592 27.2793 20.592C26.66 20.592 26.3506 20.8326 26.3506 21.2109C26.3506 21.4689 26.5056 21.6409 26.7462 21.6409C27.2619 21.6409 27.4683 21.2109 27.4857 20.6094ZM28.3452 22.4486H27.3995L27.4339 22.019C27.1933 22.3454 26.8664 22.5174 26.2994 22.5174C25.7663 22.5174 25.3024 22.0704 25.3024 21.3829C25.3024 20.4032 26.0413 19.8015 27.2103 19.8015C27.3309 19.8015 27.5197 19.8015 27.6747 19.8189C27.709 19.6813 27.7264 19.6295 27.7264 19.5438C27.7264 19.2686 27.5029 19.1826 26.9871 19.1826C26.6948 19.1826 26.3338 19.2342 26.0933 19.3202L25.9557 19.3546L25.8869 19.3716L26.0415 18.4433C26.5402 18.2885 26.9014 18.2199 27.2965 18.2199C28.2248 18.2199 28.7061 18.6497 28.7061 19.4404C28.7061 19.6467 28.7405 19.8015 28.6547 20.2485L28.4312 21.7269L28.3968 21.9848L28.3624 22.1912L28.3454 22.3288V22.4486H28.3452ZM13.5778 19.1996C13.7842 19.1996 14.0764 19.2168 14.3859 19.2684L14.5407 18.3057C14.2311 18.2713 13.8186 18.2197 13.5778 18.2197C12.3746 18.2197 11.9792 18.873 11.9792 19.6293C11.9792 20.1281 12.2026 20.4888 12.7871 20.7638C13.2169 20.9702 13.2857 21.0044 13.2857 21.1937C13.2857 21.4513 13.0623 21.6063 12.6496 21.6063C12.323 21.6063 12.0134 21.5545 11.6697 21.4343L11.5493 22.3796L11.5663 22.397L11.7727 22.4314C11.8415 22.4484 11.9274 22.4658 12.0478 22.4828C12.3056 22.5002 12.5292 22.5172 12.6667 22.5172C13.8702 22.5172 14.3687 22.0532 14.3687 21.1419C14.3687 20.5748 14.0936 20.2311 13.5606 19.9905C13.0965 19.7839 13.0449 19.7499 13.0449 19.5605C13.0449 19.3716 13.2513 19.1996 13.5778 19.1996Z" fill="#1B3771"/>
<path fill-rule="evenodd" clip-rule="evenodd" d="M26.0925 17.2052L25.9031 18.3054C25.5249 18.1162 25.2498 18.0305 24.9404 18.0305C24.1323 18.0305 23.5652 18.8211 23.5652 19.9386C23.5652 20.7123 23.9433 21.1763 24.5797 21.1763C24.8372 21.1763 25.1468 21.0905 25.4905 20.9187L25.3016 22.0701C24.906 22.1733 24.6482 22.2251 24.3559 22.2251C23.187 22.2251 22.4649 21.3826 22.4649 20.0248C22.4649 18.2196 23.462 16.9474 24.8888 16.9474C25.0778 16.9474 25.2496 16.9646 25.3871 16.999L25.8171 17.1022C25.9549 17.1538 25.9893 17.171 26.0925 17.2052ZM22.6197 17.9617H22.5165C22.1558 17.9617 21.9494 18.1336 21.6226 18.632L21.7258 17.9959H20.7457L20.0756 22.1217H21.1589C21.554 19.5947 21.6572 19.1649 22.173 19.1649H22.2418C22.3449 18.6664 22.4823 18.3052 22.6543 17.9787L22.6197 17.9617ZM16.3967 22.0701C16.1045 22.1733 15.8638 22.2077 15.6232 22.2077C15.0731 22.2077 14.7635 21.8984 14.7635 21.2968C14.7635 21.1937 14.7807 21.0563 14.7979 20.9357L14.8667 20.5231L14.9183 20.1968L15.3824 17.3771H16.4483L16.3279 17.9961H16.878L16.7404 19.0103H16.1903L15.8982 20.7295C15.881 20.7983 15.881 20.8501 15.881 20.9015C15.881 21.1079 15.9841 21.1939 16.2419 21.1939C16.3623 21.1939 16.4653 21.1939 16.5341 21.1595L16.3967 22.0701ZM12.2536 19.3025C12.2536 19.8184 12.4942 20.1792 13.0615 20.4543C13.5085 20.6607 13.5772 20.7293 13.5772 20.9013C13.5772 21.1593 13.3881 21.2794 12.9583 21.2794C12.6318 21.2794 12.3394 21.228 11.9956 21.1249L11.8409 22.0701L11.8925 22.0875L12.0816 22.1219C12.1502 22.1389 12.2364 22.1563 12.3738 22.1563C12.6144 22.1907 12.8207 22.1907 12.9583 22.1907C14.0928 22.1907 14.6259 21.7608 14.6259 20.8155C14.6259 20.248 14.4025 19.9212 13.8696 19.6636C13.4055 19.4573 13.3539 19.4059 13.3539 19.2167C13.3539 18.9933 13.5431 18.8901 13.8868 18.8901C14.0932 18.8901 14.3853 18.9073 14.6605 18.9417L14.8151 17.9963C14.5401 17.9447 14.1104 17.9103 13.8696 17.9103C12.6662 17.9101 12.2364 18.5462 12.2536 19.3025ZM34.327 22.1219H33.3126L33.3644 21.7264C33.072 22.0357 32.7624 22.1733 32.3669 22.1733C31.5762 22.1733 31.0604 21.5032 31.0604 20.4717C31.0604 19.0963 31.8685 17.9273 32.8138 17.9273C33.2438 17.9273 33.5531 18.1164 33.8457 18.4946L34.0863 17.0506H35.1521L34.327 22.1219ZM32.7452 21.1593C33.244 21.1593 33.5877 20.5747 33.5877 19.7666C33.5877 19.2337 33.3983 18.9585 33.0202 18.9585C32.5389 18.9585 32.1781 19.5259 32.1781 20.334C32.1781 20.8843 32.3671 21.1593 32.7452 21.1593ZM19.6973 22.0357C19.3189 22.1563 18.9752 22.2077 18.5798 22.2077C17.3764 22.2077 16.7574 21.5718 16.7574 20.3512C16.7574 18.9415 17.5483 17.8929 18.6314 17.8929C19.5253 17.8929 20.0924 18.4774 20.0924 19.3885C20.0924 19.698 20.058 19.9904 19.9548 20.4199H17.8235C17.8063 20.4717 17.8063 20.5061 17.8063 20.5405C17.8063 21.0219 18.1331 21.2624 18.7518 21.2624C19.1471 21.2624 19.4909 21.1937 19.8693 21.0045L19.6973 22.0357ZM19.0955 19.5775V19.3713C19.0955 19.0275 18.9064 18.8383 18.5798 18.8383C18.2361 18.8383 17.9953 19.0963 17.8921 19.5775H19.0955ZM8.14493 22.1219H7.07907L7.69799 18.2194L6.30557 22.1219H5.56626L5.48027 18.2538L4.82715 22.1219H3.83008L4.67237 17.0506H6.21958L6.27117 20.1966L7.30244 17.0506H8.98723L8.14493 22.1219ZM10.8096 20.2824C10.7064 20.2824 10.6548 20.2654 10.5688 20.2654C9.9671 20.2654 9.65774 20.4887 9.65774 20.9013C9.65774 21.1593 9.79532 21.3138 10.0359 21.3138C10.4828 21.3138 10.7924 20.9013 10.8096 20.2824ZM11.6003 22.1219H10.7062L10.7234 21.692C10.4482 22.0357 10.0873 22.1907 9.58875 22.1907C9.00422 22.1907 8.60887 21.7438 8.60887 21.0733C8.60887 20.0592 9.29638 19.4747 10.4998 19.4747C10.6202 19.4747 10.775 19.4919 10.9468 19.5089C10.9812 19.3715 10.9812 19.3199 10.9812 19.2511C10.9812 18.9761 10.792 18.8729 10.2935 18.8729C9.9841 18.8729 9.64014 18.9073 9.39957 18.9761L9.24479 19.0277L9.1416 19.0449L9.29638 18.1166C9.82932 17.9619 10.1903 17.9103 10.5858 17.9103C11.5141 17.9103 12.0126 18.3228 12.0126 19.1135C12.0126 19.3199 11.9954 19.4747 11.9267 19.9388L11.6859 21.4002L11.6515 21.6578L11.6343 21.8642L11.6171 22.0192L11.6003 22.1219ZM27.8288 20.2824C27.7083 20.2824 27.6569 20.2654 27.5883 20.2654C26.9694 20.2654 26.6596 20.4887 26.6596 20.9013C26.6596 21.1593 26.8146 21.3138 27.0551 21.3138C27.4851 21.3138 27.8114 20.9013 27.8288 20.2824ZM28.6195 22.1219H27.7257L27.7427 21.692C27.4677 22.0357 27.1067 22.1907 26.6082 22.1907C26.0237 22.1907 25.6281 21.7438 25.6281 21.0733C25.6281 20.0592 26.3156 19.4747 27.5191 19.4747C27.6397 19.4747 27.7945 19.4919 27.949 19.5089C27.9834 19.3715 28.0008 19.3199 28.0008 19.2511C28.0008 18.9761 27.8114 18.8729 27.3133 18.8729C27.0036 18.8729 26.6428 18.9073 26.402 18.9761L26.2644 19.0277L26.1613 19.0449L26.3158 18.1166C26.849 17.9619 27.2097 17.9103 27.6053 17.9103C28.5336 17.9103 29.0149 18.3228 29.0149 19.1135C29.0149 19.3199 29.0149 19.4747 28.9291 19.9388L28.7055 21.4002L28.6711 21.6578L28.6367 21.8642L28.6197 22.0192L28.6195 22.1219ZM31.5076 17.9617H31.4044C31.0436 17.9617 30.8373 18.1336 30.5105 18.632L30.6137 17.9959H29.6336L28.9803 22.1217H30.0462C30.4417 19.5947 30.5449 19.1649 31.0606 19.1649H31.1294C31.2326 18.6664 31.37 18.3052 31.542 17.9787L31.5076 17.9617Z" fill="white"/>
</g>
<defs>
<clipPath id="clip0_211_972">
<rect width="39" height="39" fill="white"/>
</clipPath>
</defs>
</svg>
