<svg width="31" height="31" viewBox="0 0 31 31" fill="none" xmlns="http://www.w3.org/2000/svg">
<g clip-path="url(#clip0_35_27)">
<path d="M25.5658 8.24953C25.6164 7.83827 25.6428 7.41953 25.6428 6.99461C25.6427 3.42295 22.7473 0.527466 19.1755 0.527466L8.36742 0.527466C7.68756 0.527466 7.10712 1.01841 6.99435 1.68881L3.01215 25.3591C2.86925 26.2085 3.52402 26.9825 4.38526 26.9825L8.33804 26.9825C9.0179 26.9825 9.60926 26.4919 9.72198 25.8214C9.72198 25.8214 9.72857 25.7822 9.74048 25.7114L9.74054 25.7114L9.18973 28.9855C9.06388 29.7341 9.64095 30.4163 10.4 30.4163L13.8581 30.4163C14.4574 30.4163 14.969 29.9836 15.0683 29.3927L16.0507 23.5539C16.22 22.5473 17.0914 21.8103 18.112 21.8103L19.0205 21.8103C23.9551 21.8103 27.9553 17.8101 27.9552 12.8755C27.9552 10.9661 27.0114 9.27825 25.5658 8.24953Z" fill="#002987"/>
<path d="M25.5654 8.24927C24.947 13.2801 20.6593 17.1756 15.4612 17.1756L12.4452 17.1756C11.7644 17.1756 11.1765 17.6291 10.9921 18.2702L9.18945 28.9851C9.06353 29.7338 9.6406 30.4161 10.3997 30.4161L13.8578 30.4161C14.457 30.4161 14.9686 29.9833 15.068 29.3924L16.0503 23.5536C16.2197 22.5471 17.0911 21.8101 18.1117 21.8101L19.0201 21.8101C23.9548 21.8101 27.955 17.8098 27.9549 12.8753C27.9549 10.9658 27.011 9.27798 25.5654 8.24927Z" fill="#0085CC"/>
<path d="M12.4435 17.1758L15.4595 17.1758C20.6576 17.1758 24.9454 13.2802 25.5637 8.24945C24.6362 7.58944 23.5028 7.19995 22.2777 7.19995L14.4055 7.19995C13.5092 7.19995 12.744 7.84717 12.5952 8.731L10.9904 18.2702C11.1748 17.6291 11.7627 17.1758 12.4435 17.1758Z" fill="#00186A"/>
</g>
<defs>
<clipPath id="clip0_35_27">
<rect width="29.8892" height="29.8889" fill="white" transform="matrix(1 0 1.25285e-05 1 0.527344 0.527222)"/>
</clipPath>
</defs>
</svg>
