<svg width="205" height="244" viewBox="0 0 205 244" fill="none" xmlns="http://www.w3.org/2000/svg">
<rect width="205" height="244" rx="30" fill="white"/>
<path d="M35 40.648C35 38.104 33.368 36.712 30.344 36.112L27.392 35.512C26.144 35.272 25.064 34.768 25.064 33.592C25.064 32.392 26.072 31.384 27.848 31.384C29.672 31.384 30.92 32.608 31.04 34.408H34.736C34.496 30.808 31.664 28.552 27.8 28.552C24.08 28.552 21.368 30.76 21.368 33.832C21.368 36.688 23.384 38.104 26 38.608L28.832 39.16C30.296 39.448 31.136 40.096 31.136 41.176C31.136 42.568 29.816 43.384 27.968 43.384C25.736 43.384 24.512 42.16 24.416 40.264H20.72C20.984 43.912 23.696 46.24 28.04 46.24C32.36 46.24 35 43.936 35 40.648ZM45.0341 46H47.7461V37.936C47.7461 34.792 45.7781 32.944 42.4181 32.944C39.3221 32.944 37.1861 34.864 36.9941 37.816H39.9941C40.1141 36.376 40.9781 35.536 42.4181 35.536C43.8101 35.536 44.6261 36.376 44.6261 37.816V38.584C43.8341 38.488 43.2101 38.44 42.4901 38.44C38.7461 38.44 36.7301 39.784 36.7301 42.28C36.7301 44.68 38.5061 46.24 41.1701 46.24C42.9221 46.24 44.1941 45.616 45.0341 44.416V46ZM39.8741 42.184C39.8741 41.032 40.8101 40.432 42.7061 40.432C43.2821 40.432 43.8341 40.48 44.6261 40.6V41.512C44.6261 43 43.5941 43.936 41.8901 43.936C40.6421 43.936 39.8741 43.264 39.8741 42.184ZM61.7195 33.184H58.3595L55.2875 42.208L52.2395 33.184H48.6395L53.3675 46H57.0155L61.7195 33.184ZM67.0473 30.208C67.0473 29.032 66.1353 28.192 64.8153 28.192C63.5193 28.192 62.6073 29.032 62.6073 30.208C62.6073 31.336 63.5193 32.176 64.8153 32.176C66.1353 32.176 67.0473 31.336 67.0473 30.208ZM66.5193 46V33.184H63.1833V46H66.5193ZM72.824 39.016C72.824 36.952 73.952 35.896 75.272 35.896C76.784 35.896 77.528 36.952 77.528 38.848V46H80.84V37.72C80.84 34.624 79.064 32.944 76.496 32.944C74.816 32.944 73.496 33.736 72.56 35.008V33.184H69.488V46H72.824V39.016ZM89.1626 50.872C92.9546 50.872 95.2586 48.808 95.2586 45.4V33.184H92.2106V34.936C91.2746 33.616 89.9786 32.944 88.2506 32.944C85.0826 32.944 82.8746 35.512 82.8746 39.232C82.8746 42.856 85.2266 45.52 88.3706 45.52C89.9306 45.52 91.2506 44.8 91.9466 43.576V45.448C91.9466 47.296 90.9866 48.28 89.1386 48.28C87.5546 48.28 86.6186 47.512 86.4746 46.048H83.2586C83.4026 49 85.7066 50.872 89.1626 50.872ZM86.2106 39.232C86.2106 37.144 87.3146 35.824 89.0186 35.824C90.7706 35.824 91.9226 37.168 91.9226 39.256C91.9226 41.272 90.7706 42.64 89.0186 42.64C87.2906 42.64 86.2106 41.32 86.2106 39.232ZM108.733 50.872C112.525 50.872 114.829 48.808 114.829 45.4V33.184H111.781V34.936C110.845 33.616 109.549 32.944 107.821 32.944C104.653 32.944 102.445 35.512 102.445 39.232C102.445 42.856 104.797 45.52 107.941 45.52C109.501 45.52 110.821 44.8 111.517 43.576V45.448C111.517 47.296 110.557 48.28 108.709 48.28C107.125 48.28 106.189 47.512 106.045 46.048H102.829C102.973 49 105.277 50.872 108.733 50.872ZM105.781 39.232C105.781 37.144 106.885 35.824 108.589 35.824C110.341 35.824 111.493 37.168 111.493 39.256C111.493 41.272 110.341 42.64 108.589 42.64C106.861 42.64 105.781 41.32 105.781 39.232ZM121.176 39.784C121.176 36.952 123.072 36.28 125.904 36.496V33.04C123.84 33.04 121.848 34.024 120.912 35.656V33.184H117.84V46H121.176V39.784ZM133.207 46.24C136.927 46.24 139.711 43.312 139.711 39.592C139.711 35.848 136.927 32.944 133.207 32.944C129.487 32.944 126.703 35.848 126.703 39.592C126.703 43.312 129.487 46.24 133.207 46.24ZM133.207 43.288C131.551 43.288 130.135 41.968 130.135 39.592C130.135 37.216 131.551 35.92 133.207 35.92C134.863 35.92 136.279 37.216 136.279 39.592C136.279 41.968 134.863 43.288 133.207 43.288ZM152.023 46H155.335L159.007 33.184H155.719L153.559 41.296L151.279 33.184H147.991L145.639 41.296L143.455 33.184H140.215L143.863 46H147.199L149.599 37.672L152.023 46ZM169.12 42.76C168.64 43.024 168.064 43.168 167.44 43.168C166.24 43.168 165.568 42.568 165.568 41.08V36.04H169.24V33.184H165.568V29.392H162.256V33.184H159.664V36.04H162.256V41.848C162.256 44.728 163.912 46.24 166.552 46.24C167.536 46.24 168.304 46.072 169.12 45.664V42.76ZM174.613 39.016C174.613 36.952 175.741 35.896 177.061 35.896C178.573 35.896 179.317 36.952 179.317 38.848V46H182.629V37.72C182.629 34.624 180.853 32.944 178.285 32.944C176.605 32.944 175.501 33.688 174.613 34.864V28.768H171.277V46H174.613V39.016Z" fill="#110D34"/>
<path d="M46.489 194.241C45.2001 195.282 43.3059 195.085 42.3172 193.755C34.4269 183.145 29.4707 170.622 27.9773 157.448C26.3711 143.28 28.8373 128.947 35.0866 116.13C41.336 103.313 51.1095 92.5434 63.2615 85.0833C75.4136 77.6232 89.4405 73.7818 103.698 74.0096C117.955 74.2373 131.852 78.5247 143.76 86.3692C155.667 94.2136 165.092 105.29 170.929 118.3C176.766 131.31 178.773 145.714 176.715 159.824C174.801 172.943 169.448 185.302 161.223 195.655C160.192 196.952 158.292 197.089 157.037 196.007L147.119 187.458C145.864 186.377 145.731 184.487 146.744 183.176C152.608 175.584 156.431 166.595 157.821 157.068C159.355 146.551 157.859 135.814 153.508 126.116C149.157 116.418 142.132 108.162 133.256 102.314C124.38 96.4668 114.021 93.2709 103.393 93.1011C92.7653 92.9314 82.3094 95.7948 73.2511 101.356C64.1929 106.917 56.9075 114.944 52.2492 124.498C47.5908 134.052 45.7526 144.736 46.9498 155.297C48.0342 164.863 51.5682 173.97 57.1874 181.745C58.1579 183.088 57.9642 184.973 56.6752 186.014L46.489 194.241Z" fill="#8B4CDD"/>
<path d="M174.438 127.793C178.157 140.409 178.493 153.781 175.412 166.568C172.566 178.382 166.896 189.312 158.907 198.428C157.815 199.675 155.911 199.72 154.71 198.579L145.215 189.563C144.013 188.422 143.971 186.528 145.046 185.267C150.738 178.589 154.788 170.653 156.85 162.096C159.146 152.564 158.896 142.596 156.123 133.192L174.438 127.793Z" fill="#D9D9D9"/>
<path d="M47.214 211.282C47.214 214.418 48.39 216.14 50.574 216.14C52.744 216.14 53.934 214.418 53.934 211.282C53.934 208.146 52.716 206.396 50.574 206.396C48.418 206.396 47.214 208.146 47.214 211.282ZM48.222 211.282C48.222 208.636 49.048 207.264 50.574 207.264C52.1 207.264 52.926 208.65 52.926 211.282C52.926 213.9 52.1 215.272 50.574 215.272C49.02 215.272 48.222 213.886 48.222 211.282ZM57.9804 212.332C59.6744 212.332 60.8224 211.016 60.8224 209.392C60.8224 207.768 59.6744 206.452 57.9804 206.452C56.3004 206.452 55.1524 207.768 55.1524 209.392C55.1524 211.016 56.3004 212.332 57.9804 212.332ZM59.7164 216L65.0504 206.536H64.2104L58.8904 216H59.7164ZM57.9804 211.618C56.9024 211.618 55.9924 210.806 55.9924 209.392C55.9924 207.964 56.9024 207.166 57.9804 207.166C59.0724 207.166 59.9684 207.964 59.9684 209.392C59.9684 210.806 59.0724 211.618 57.9804 211.618ZM66.0584 216.112C67.7524 216.112 68.9004 214.81 68.9004 213.172C68.9004 211.548 67.7524 210.232 66.0584 210.232C64.3644 210.232 63.2164 211.548 63.2164 213.172C63.2164 214.81 64.3644 216.112 66.0584 216.112ZM66.0584 215.398C64.9804 215.398 64.0704 214.586 64.0704 213.172C64.0704 211.744 64.9804 210.96 66.0584 210.96C67.1364 210.96 68.0464 211.744 68.0464 213.172C68.0464 214.586 67.1364 215.398 66.0584 215.398Z" fill="#212123" fill-opacity="0.5"/>
<path d="M139.976 213.41C139.976 212.178 139.122 211.394 138.058 211.072C138.898 210.75 139.57 209.952 139.57 208.93C139.57 207.418 138.31 206.396 136.658 206.396C135.006 206.396 133.732 207.418 133.732 208.93C133.732 209.952 134.404 210.75 135.258 211.072C134.18 211.394 133.34 212.178 133.34 213.41C133.34 215.048 134.698 216.126 136.658 216.126C138.604 216.126 139.976 215.048 139.976 213.41ZM134.74 208.958C134.74 207.866 135.524 207.194 136.658 207.194C137.778 207.194 138.576 207.866 138.576 208.958C138.576 210.05 137.778 210.708 136.658 210.708C135.524 210.708 134.74 210.05 134.74 208.958ZM134.348 213.382C134.348 212.178 135.314 211.506 136.658 211.506C137.988 211.506 138.968 212.178 138.968 213.382C138.968 214.6 137.988 215.328 136.658 215.328C135.314 215.328 134.348 214.6 134.348 213.382ZM141.513 211.282C141.513 214.418 142.689 216.14 144.873 216.14C147.043 216.14 148.233 214.418 148.233 211.282C148.233 208.146 147.015 206.396 144.873 206.396C142.717 206.396 141.513 208.146 141.513 211.282ZM142.521 211.282C142.521 208.636 143.347 207.264 144.873 207.264C146.399 207.264 147.225 208.65 147.225 211.282C147.225 213.9 146.399 215.272 144.873 215.272C143.319 215.272 142.521 213.886 142.521 211.282ZM152.279 212.332C153.973 212.332 155.121 211.016 155.121 209.392C155.121 207.768 153.973 206.452 152.279 206.452C150.599 206.452 149.451 207.768 149.451 209.392C149.451 211.016 150.599 212.332 152.279 212.332ZM154.015 216L159.349 206.536H158.509L153.189 216H154.015ZM152.279 211.618C151.201 211.618 150.291 210.806 150.291 209.392C150.291 207.964 151.201 207.166 152.279 207.166C153.371 207.166 154.267 207.964 154.267 209.392C154.267 210.806 153.371 211.618 152.279 211.618ZM160.357 216.112C162.051 216.112 163.199 214.81 163.199 213.172C163.199 211.548 162.051 210.232 160.357 210.232C158.663 210.232 157.515 211.548 157.515 213.172C157.515 214.81 158.663 216.112 160.357 216.112ZM160.357 215.398C159.279 215.398 158.369 214.586 158.369 213.172C158.369 211.744 159.279 210.96 160.357 210.96C161.435 210.96 162.345 211.744 162.345 213.172C162.345 214.586 161.435 215.398 160.357 215.398Z" fill="#212123" fill-opacity="0.5"/>
<path d="M71.508 155V136.072H64.032V139.432H67.616V155H71.508ZM81.5985 155.28C86.3585 155.28 88.7665 152.06 88.7665 148.812C88.7665 145.62 86.6105 142.512 82.1025 142.512C80.9825 142.512 79.8905 142.792 78.9385 143.408L79.5265 139.544H87.6465V136.072H76.6985L75.0465 146.684L78.2385 147.72C78.8265 146.432 79.9465 145.816 81.4585 145.816C83.7545 145.816 84.7345 147.328 84.7345 148.812C84.7345 150.352 83.8665 151.808 81.5705 151.808C79.8065 151.808 78.5185 150.884 78.2945 149.232H74.4025C74.5145 152.76 77.5665 155.28 81.5985 155.28ZM95.9406 152.508C95.9406 150.94 94.8766 149.848 93.3366 149.848C91.7966 149.848 90.7046 150.94 90.7046 152.508C90.7046 154.048 91.7966 155.14 93.3366 155.14C94.8766 155.14 95.9406 154.048 95.9406 152.508ZM113.202 151.276V147.888H110.542V136.072H107.462L97.6895 148.392V151.276H106.678V155H110.542V151.276H113.202ZM101.946 147.888L106.678 141.644V147.888H101.946ZM120.726 147.664C124.226 147.664 126.858 145.004 126.858 141.784C126.858 138.536 124.226 135.904 120.726 135.904C117.198 135.904 114.594 138.536 114.594 141.784C114.594 145.004 117.198 147.664 120.726 147.664ZM125.374 155L136.126 136.072H133.018L122.266 155H125.374ZM120.726 144.92C119.158 144.92 117.758 143.856 117.758 141.784C117.758 139.712 119.158 138.648 120.726 138.648C122.322 138.648 123.666 139.712 123.666 141.784C123.666 143.856 122.322 144.92 120.726 144.92ZM138.142 155.252C141.67 155.252 144.274 152.592 144.274 149.372C144.274 146.124 141.67 143.492 138.142 143.492C134.614 143.492 132.01 146.124 132.01 149.372C132.01 152.592 134.614 155.252 138.142 155.252ZM138.142 152.48C136.574 152.48 135.174 151.444 135.174 149.372C135.174 147.272 136.574 146.236 138.142 146.236C139.738 146.236 141.11 147.272 141.11 149.372C141.11 151.444 139.738 152.48 138.142 152.48Z" fill="#110D34"/>
</svg>
