<svg width="460" height="374" viewBox="0 0 460 374" fill="none" xmlns="http://www.w3.org/2000/svg">
<rect width="460" height="374" rx="30" fill="white"/>
<line x1="43" y1="319.238" x2="417" y2="319.238" stroke="#AFAFAF" stroke-opacity="0.1" stroke-width="0.707576"/>
<line x1="43" y1="250.708" x2="417" y2="250.708" stroke="#AFAFAF" stroke-opacity="0.1" stroke-width="0.707576"/>
<line x1="43" y1="182.176" x2="417" y2="182.176" stroke="#AFAFAF" stroke-opacity="0.1" stroke-width="0.707576"/>
<line x1="43" y1="113.646" x2="417" y2="113.646" stroke="#AFAFAF" stroke-opacity="0.1" stroke-width="0.707576"/>
<path d="M100.1 56H103.148L107.708 44.456V56H111.02V38.768H106.652L101.636 51.536L96.644 38.768H92.276V56H95.588V44.552L100.1 56ZM119.918 56.24C123.638 56.24 126.422 53.312 126.422 49.592C126.422 45.848 123.638 42.944 119.918 42.944C116.198 42.944 113.414 45.848 113.414 49.592C113.414 53.312 116.198 56.24 119.918 56.24ZM119.918 53.288C118.262 53.288 116.846 51.968 116.846 49.592C116.846 47.216 118.262 45.92 119.918 45.92C121.574 45.92 122.99 47.216 122.99 49.592C122.99 51.968 121.574 53.288 119.918 53.288ZM131.887 49.016C131.887 46.952 133.015 45.896 134.335 45.896C135.847 45.896 136.591 46.952 136.591 48.848V56H139.903V47.72C139.903 44.624 138.127 42.944 135.559 42.944C133.879 42.944 132.559 43.736 131.623 45.008V43.184H128.551V56H131.887V49.016ZM150.651 52.76C150.171 53.024 149.595 53.168 148.971 53.168C147.771 53.168 147.099 52.568 147.099 51.08V46.04H150.771V43.184H147.099V39.392H143.787V43.184H141.195V46.04H143.787V51.848C143.787 54.728 145.443 56.24 148.083 56.24C149.067 56.24 149.835 56.072 150.651 55.664V52.76ZM156.144 49.016C156.144 46.952 157.272 45.896 158.592 45.896C160.104 45.896 160.848 46.952 160.848 48.848V56H164.16V47.72C164.16 44.624 162.384 42.944 159.816 42.944C158.136 42.944 157.032 43.688 156.144 44.864V38.768H152.808V56H156.144V49.016ZM170.395 56V38.768H167.035V56H170.395ZM184.93 43.184H181.594L178.666 51.968L175.45 43.184H171.85L176.89 55.856L175.066 60.632H178.69L184.93 43.184ZM204.202 49.592C204.202 45.824 201.97 42.944 198.514 42.944C196.882 42.944 195.466 43.688 194.482 45.056V43.184H191.41V60.632H194.746V54.344C195.706 55.592 197.002 56.24 198.514 56.24C201.97 56.24 204.202 53.384 204.202 49.592ZM200.77 49.592C200.77 52.04 199.402 53.264 197.77 53.264C196.138 53.264 194.77 52.016 194.77 49.592C194.77 47.168 196.138 45.896 197.77 45.896C199.402 45.896 200.77 47.192 200.77 49.592ZM213.972 56H216.684V47.936C216.684 44.792 214.716 42.944 211.356 42.944C208.26 42.944 206.124 44.864 205.932 47.816H208.932C209.052 46.376 209.916 45.536 211.356 45.536C212.748 45.536 213.564 46.376 213.564 47.816V48.584C212.772 48.488 212.148 48.44 211.428 48.44C207.684 48.44 205.668 49.784 205.668 52.28C205.668 54.68 207.444 56.24 210.108 56.24C211.86 56.24 213.132 55.616 213.972 54.416V56ZM208.812 52.184C208.812 51.032 209.748 50.432 211.644 50.432C212.22 50.432 212.772 50.48 213.564 50.6V51.512C213.564 53 212.532 53.936 210.828 53.936C209.58 53.936 208.812 53.264 208.812 52.184ZM230.657 43.184H227.321L224.393 51.968L221.177 43.184H217.577L222.617 55.856L220.793 60.632H224.417L230.657 43.184ZM235.457 56V48.848C235.457 46.928 236.513 45.896 237.857 45.896C239.321 45.896 240.089 46.976 240.089 48.776V56H243.401V48.848C243.401 46.928 244.481 45.896 245.801 45.896C247.265 45.896 248.033 46.976 248.033 48.776V56H251.345V47.72C251.345 44.648 249.593 42.944 247.001 42.944C245.081 42.944 243.785 43.808 242.777 45.224C242.129 43.76 240.785 42.944 239.033 42.944C237.329 42.944 236.129 43.712 235.193 45.008V43.184H232.121V56H235.457ZM259.767 56.216C262.887 56.216 265.119 54.56 265.839 51.656H262.527C262.143 52.928 261.159 53.648 259.695 53.648C257.991 53.648 256.983 52.496 256.767 50.408H265.863C266.463 46.232 263.775 42.944 259.719 42.944C256.023 42.944 253.359 45.728 253.359 49.544C253.359 53.552 255.927 56.216 259.767 56.216ZM259.647 45.392C261.231 45.392 262.239 46.52 262.335 48.296H256.815C257.103 46.4 258.087 45.392 259.647 45.392ZM271.433 49.016C271.433 46.952 272.561 45.896 273.881 45.896C275.393 45.896 276.137 46.952 276.137 48.848V56H279.449V47.72C279.449 44.624 277.673 42.944 275.105 42.944C273.425 42.944 272.105 43.736 271.169 45.008V43.184H268.097V56H271.433V49.016ZM290.198 52.76C289.718 53.024 289.142 53.168 288.518 53.168C287.318 53.168 286.646 52.568 286.646 51.08V46.04H290.318V43.184H286.646V39.392H283.334V43.184H280.742V46.04H283.334V51.848C283.334 54.728 284.99 56.24 287.63 56.24C288.614 56.24 289.382 56.072 290.198 55.664V52.76ZM308.195 51.896C308.195 50.048 306.923 48.896 304.427 48.416L301.955 47.96C300.803 47.744 300.275 47.432 300.275 46.664C300.275 45.848 301.091 45.392 302.315 45.392C303.731 45.392 304.667 46.16 304.787 47.408H307.979C307.739 44.648 305.531 42.944 302.315 42.944C299.123 42.944 297.083 44.6 297.083 46.976C297.083 48.968 298.475 50.24 300.779 50.648L303.083 51.08C304.307 51.32 304.835 51.656 304.835 52.472C304.835 53.384 303.851 53.792 302.555 53.792C300.899 53.792 299.771 52.952 299.747 51.632H296.555C296.819 54.488 298.859 56.24 302.507 56.24C306.155 56.24 308.195 54.584 308.195 51.896ZM318.183 52.76C317.703 53.024 317.127 53.168 316.503 53.168C315.303 53.168 314.631 52.568 314.631 51.08V46.04H318.303V43.184H314.631V39.392H311.319V43.184H308.727V46.04H311.319V51.848C311.319 54.728 312.975 56.24 315.615 56.24C316.599 56.24 317.367 56.072 318.183 55.664V52.76ZM327.972 56H330.684V47.936C330.684 44.792 328.716 42.944 325.356 42.944C322.26 42.944 320.124 44.864 319.932 47.816H322.932C323.052 46.376 323.916 45.536 325.356 45.536C326.748 45.536 327.564 46.376 327.564 47.816V48.584C326.772 48.488 326.148 48.44 325.428 48.44C321.684 48.44 319.668 49.784 319.668 52.28C319.668 54.68 321.444 56.24 324.108 56.24C325.86 56.24 327.132 55.616 327.972 54.416V56ZM322.812 52.184C322.812 51.032 323.748 50.432 325.644 50.432C326.22 50.432 326.772 50.48 327.564 50.6V51.512C327.564 53 326.532 53.936 324.828 53.936C323.58 53.936 322.812 53.264 322.812 52.184ZM341.339 52.76C340.859 53.024 340.283 53.168 339.659 53.168C338.459 53.168 337.787 52.568 337.787 51.08V46.04H341.459V43.184H337.787V39.392H334.475V43.184H331.883V46.04H334.475V51.848C334.475 54.728 336.131 56.24 338.771 56.24C339.755 56.24 340.523 56.072 341.339 55.664V52.76ZM351.296 50.6C351.296 52.328 350.144 53.288 348.944 53.288C347.6 53.288 346.712 52.496 346.712 50.696V43.184H343.376V51.344C343.376 54.68 345.248 56.24 347.816 56.24C349.448 56.24 350.864 55.448 351.56 54.32V56H354.608V43.184H351.296V50.6ZM368.429 51.896C368.429 50.048 367.157 48.896 364.661 48.416L362.189 47.96C361.037 47.744 360.509 47.432 360.509 46.664C360.509 45.848 361.325 45.392 362.549 45.392C363.965 45.392 364.901 46.16 365.021 47.408H368.213C367.973 44.648 365.765 42.944 362.549 42.944C359.357 42.944 357.317 44.6 357.317 46.976C357.317 48.968 358.709 50.24 361.013 50.648L363.317 51.08C364.541 51.32 365.069 51.656 365.069 52.472C365.069 53.384 364.085 53.792 362.789 53.792C361.133 53.792 360.005 52.952 359.981 51.632H356.789C357.053 54.488 359.093 56.24 362.741 56.24C366.389 56.24 368.429 54.584 368.429 51.896Z" fill="#110D34"/>
<path d="M36.482 108.132H32.212L34.522 105.444C35.978 103.82 36.384 103.05 36.384 102.028C36.384 100.502 35.166 99.396 33.514 99.396C31.778 99.396 30.56 100.586 30.56 102.238H31.512C31.512 101.062 32.324 100.264 33.472 100.264C34.578 100.264 35.362 101.048 35.362 102.112C35.362 103.022 34.942 103.722 33.794 105.024L30.77 108.44V109H36.482V108.132ZM37.8644 104.282C37.8644 107.418 39.0404 109.14 41.2244 109.14C43.3944 109.14 44.5844 107.418 44.5844 104.282C44.5844 101.146 43.3664 99.396 41.2244 99.396C39.0684 99.396 37.8644 101.146 37.8644 104.282ZM38.8724 104.282C38.8724 101.636 39.6984 100.264 41.2244 100.264C42.7504 100.264 43.5764 101.65 43.5764 104.282C43.5764 106.9 42.7504 108.272 41.2244 108.272C39.6704 108.272 38.8724 106.886 38.8724 104.282ZM46.0128 104.282C46.0128 107.418 47.1888 109.14 49.3728 109.14C51.5428 109.14 52.7328 107.418 52.7328 104.282C52.7328 101.146 51.5148 99.396 49.3728 99.396C47.2168 99.396 46.0128 101.146 46.0128 104.282ZM47.0208 104.282C47.0208 101.636 47.8468 100.264 49.3728 100.264C50.8988 100.264 51.7248 101.65 51.7248 104.282C51.7248 106.9 50.8988 108.272 49.3728 108.272C47.8188 108.272 47.0208 106.886 47.0208 104.282Z" fill="#212123" fill-opacity="0.4"/>
<path d="M33.08 161V151.536H30.252V152.376H32.114V161H33.08ZM38.0173 161.14C40.0473 161.14 41.2793 159.81 41.2793 158.032C41.2793 156.408 40.1033 155.064 38.1713 155.064C37.4433 155.064 36.7993 155.288 36.2253 155.806L36.7433 152.39H40.7473V151.536H36.0433L35.2173 156.8L35.9733 157.024C36.4353 156.296 37.1353 155.904 38.0453 155.904C39.3893 155.904 40.2853 156.856 40.2853 158.046C40.2853 159.376 39.4593 160.272 38.0173 160.272C36.8273 160.272 35.9593 159.53 35.8753 158.368H34.9233C34.9793 159.978 36.2953 161.14 38.0173 161.14ZM42.5675 156.282C42.5675 159.418 43.7435 161.14 45.9275 161.14C48.0975 161.14 49.2875 159.418 49.2875 156.282C49.2875 153.146 48.0695 151.396 45.9275 151.396C43.7715 151.396 42.5675 153.146 42.5675 156.282ZM43.5755 156.282C43.5755 153.636 44.4015 152.264 45.9275 152.264C47.4535 152.264 48.2795 153.65 48.2795 156.282C48.2795 158.9 47.4535 160.272 45.9275 160.272C44.3735 160.272 43.5755 158.886 43.5755 156.282Z" fill="#212123" fill-opacity="0.4"/>
<path d="M33.08 213V203.536H30.252V204.376H32.114V213H33.08ZM34.9933 208.282C34.9933 211.418 36.1693 213.14 38.3533 213.14C40.5233 213.14 41.7133 211.418 41.7133 208.282C41.7133 205.146 40.4953 203.396 38.3533 203.396C36.1973 203.396 34.9933 205.146 34.9933 208.282ZM36.0013 208.282C36.0013 205.636 36.8273 204.264 38.3533 204.264C39.8793 204.264 40.7053 205.65 40.7053 208.282C40.7053 210.9 39.8793 212.272 38.3533 212.272C36.7993 212.272 36.0013 210.886 36.0013 208.282ZM43.1417 208.282C43.1417 211.418 44.3177 213.14 46.5017 213.14C48.6717 213.14 49.8617 211.418 49.8617 208.282C49.8617 205.146 48.6437 203.396 46.5017 203.396C44.3457 203.396 43.1417 205.146 43.1417 208.282ZM44.1497 208.282C44.1497 205.636 44.9757 204.264 46.5017 204.264C48.0277 204.264 48.8537 205.65 48.8537 208.282C48.8537 210.9 48.0277 212.272 46.5017 212.272C44.9477 212.272 44.1497 210.886 44.1497 208.282Z" fill="#212123" fill-opacity="0.4"/>
<path d="M33.738 265.14C35.768 265.14 37 263.81 37 262.032C37 260.408 35.824 259.064 33.892 259.064C33.164 259.064 32.52 259.288 31.946 259.806L32.464 256.39H36.468V255.536H31.764L30.938 260.8L31.694 261.024C32.156 260.296 32.856 259.904 33.766 259.904C35.11 259.904 36.006 260.856 36.006 262.046C36.006 263.376 35.18 264.272 33.738 264.272C32.548 264.272 31.68 263.53 31.596 262.368H30.644C30.7 263.978 32.016 265.14 33.738 265.14ZM38.2882 260.282C38.2882 263.418 39.4642 265.14 41.6482 265.14C43.8182 265.14 45.0082 263.418 45.0082 260.282C45.0082 257.146 43.7902 255.396 41.6482 255.396C39.4922 255.396 38.2882 257.146 38.2882 260.282ZM39.2962 260.282C39.2962 257.636 40.1222 256.264 41.6482 256.264C43.1742 256.264 44.0002 257.65 44.0002 260.282C44.0002 262.9 43.1742 264.272 41.6482 264.272C40.0942 264.272 39.2962 262.886 39.2962 260.282Z" fill="#212123" fill-opacity="0.4"/>
<path d="M30.714 312.282C30.714 315.418 31.89 317.14 34.074 317.14C36.244 317.14 37.434 315.418 37.434 312.282C37.434 309.146 36.216 307.396 34.074 307.396C31.918 307.396 30.714 309.146 30.714 312.282ZM31.722 312.282C31.722 309.636 32.548 308.264 34.074 308.264C35.6 308.264 36.426 309.65 36.426 312.282C36.426 314.9 35.6 316.272 34.074 316.272C32.52 316.272 31.722 314.886 31.722 312.282ZM38.8624 312.282C38.8624 315.418 40.0384 317.14 42.2224 317.14C44.3924 317.14 45.5824 315.418 45.5824 312.282C45.5824 309.146 44.3644 307.396 42.2224 307.396C40.0664 307.396 38.8624 309.146 38.8624 312.282ZM39.8704 312.282C39.8704 309.636 40.6964 308.264 42.2224 308.264C43.7484 308.264 44.5744 309.65 44.5744 312.282C44.5744 314.9 43.7484 316.272 42.2224 316.272C40.6684 316.272 39.8704 314.886 39.8704 312.282Z" fill="#212123" fill-opacity="0.4"/>
<rect x="100" y="250" width="20" height="72" rx="5" fill="#D4B3F9"/>
<rect x="88" y="275.895" width="15" height="46.0297" rx="5" fill="#8C33EF"/>
<path d="M98.214 334.282C98.214 337.418 99.39 339.14 101.574 339.14C103.744 339.14 104.934 337.418 104.934 334.282C104.934 331.146 103.716 329.396 101.574 329.396C99.418 329.396 98.214 331.146 98.214 334.282ZM99.222 334.282C99.222 331.636 100.048 330.264 101.574 330.264C103.1 330.264 103.926 331.65 103.926 334.282C103.926 336.9 103.1 338.272 101.574 338.272C100.02 338.272 99.222 336.886 99.222 334.282ZM108.687 339V329.536H105.859V330.376H107.721V339H108.687Z" fill="#212123" fill-opacity="0.4"/>
<rect x="162" y="197" width="20" height="125" rx="5" fill="#D4B3F9"/>
<rect x="150" y="263.667" width="15" height="58.3333" rx="5" fill="#8C33EF"/>
<path d="M158.714 334.282C158.714 337.418 159.89 339.14 162.074 339.14C164.244 339.14 165.434 337.418 165.434 334.282C165.434 331.146 164.216 329.396 162.074 329.396C159.918 329.396 158.714 331.146 158.714 334.282ZM159.722 334.282C159.722 331.636 160.548 330.264 162.074 330.264C163.6 330.264 164.426 331.65 164.426 334.282C164.426 336.9 163.6 338.272 162.074 338.272C160.52 338.272 159.722 336.886 159.722 334.282ZM172.63 338.132H168.36L170.67 335.444C172.126 333.82 172.532 333.05 172.532 332.028C172.532 330.502 171.314 329.396 169.662 329.396C167.926 329.396 166.708 330.586 166.708 332.238H167.66C167.66 331.062 168.472 330.264 169.62 330.264C170.726 330.264 171.51 331.048 171.51 332.112C171.51 333.022 171.09 333.722 169.942 335.024L166.918 338.44V339H172.63V338.132Z" fill="#212123" fill-opacity="0.4"/>
<rect x="224" y="143" width="20" height="179" rx="5" fill="#D4B3F9"/>
<rect x="212" y="182.092" width="15" height="139.908" rx="5" fill="#8C33EF"/>
<path d="M220.214 334.282C220.214 337.418 221.39 339.14 223.574 339.14C225.744 339.14 226.934 337.418 226.934 334.282C226.934 331.146 225.716 329.396 223.574 329.396C221.418 329.396 220.214 331.146 220.214 334.282ZM221.222 334.282C221.222 331.636 222.048 330.264 223.574 330.264C225.1 330.264 225.926 331.65 225.926 334.282C225.926 336.9 225.1 338.272 223.574 338.272C222.02 338.272 221.222 336.886 221.222 334.282ZM231.624 339.126C233.528 339.126 234.816 338.006 234.816 336.382C234.816 335.234 234.06 334.394 232.758 334.072C233.794 333.638 234.382 332.854 234.382 331.874C234.382 330.418 233.248 329.396 231.568 329.396C229.958 329.396 228.726 330.502 228.684 331.986H229.622C229.678 330.894 230.42 330.194 231.54 330.194C232.618 330.194 233.374 330.894 233.374 331.916C233.374 332.98 232.562 333.722 231.4 333.722H230.49V334.534H231.428C232.884 334.534 233.808 335.262 233.808 336.396C233.808 337.586 232.982 338.328 231.624 338.328C230.308 338.328 229.426 337.572 229.37 336.382H228.418C228.46 338.02 229.748 339.126 231.624 339.126Z" fill="#212123" fill-opacity="0.4"/>
<rect x="286" y="161" width="20" height="161" rx="5" fill="#D4B3F9"/>
<rect x="274" y="211.571" width="15" height="110.429" rx="5" fill="#8C33EF"/>
<path d="M282.714 334.282C282.714 337.418 283.89 339.14 286.074 339.14C288.244 339.14 289.434 337.418 289.434 334.282C289.434 331.146 288.216 329.396 286.074 329.396C283.918 329.396 282.714 331.146 282.714 334.282ZM283.722 334.282C283.722 331.636 284.548 330.264 286.074 330.264C287.6 330.264 288.426 331.65 288.426 334.282C288.426 336.9 287.6 338.272 286.074 338.272C284.52 338.272 283.722 336.886 283.722 334.282ZM297.4 336.746V335.892H296.126V329.536H295.44L290.554 336.088V336.746H295.16V339H296.126V336.746H297.4ZM291.688 335.892L295.16 331.132V335.892H291.688Z" fill="#212123" fill-opacity="0.4"/>
<rect x="348" y="130" width="20" height="192" rx="5" fill="#D4B3F9"/>
<rect x="336" y="235.754" width="15" height="86.246" rx="5" fill="#8C33EF"/>
<path d="M344.714 334.282C344.714 337.418 345.89 339.14 348.074 339.14C350.244 339.14 351.434 337.418 351.434 334.282C351.434 331.146 350.216 329.396 348.074 329.396C345.918 329.396 344.714 331.146 344.714 334.282ZM345.722 334.282C345.722 331.636 346.548 330.264 348.074 330.264C349.6 330.264 350.426 331.65 350.426 334.282C350.426 336.9 349.6 338.272 348.074 338.272C346.52 338.272 345.722 336.886 345.722 334.282ZM355.886 339.14C357.916 339.14 359.148 337.81 359.148 336.032C359.148 334.408 357.972 333.064 356.04 333.064C355.312 333.064 354.668 333.288 354.094 333.806L354.612 330.39H358.616V329.536H353.912L353.086 334.8L353.842 335.024C354.304 334.296 355.004 333.904 355.914 333.904C357.258 333.904 358.154 334.856 358.154 336.046C358.154 337.376 357.328 338.272 355.886 338.272C354.696 338.272 353.828 337.53 353.744 336.368H352.792C352.848 337.978 354.164 339.14 355.886 339.14Z" fill="#212123" fill-opacity="0.4"/>
<rect x="410" y="94" width="20" height="228" rx="5" fill="#D4B3F9"/>
<rect x="398" y="141" width="15" height="181" rx="5" fill="#8C33EF"/>
<path d="M406.714 334.282C406.714 337.418 407.89 339.14 410.074 339.14C412.244 339.14 413.434 337.418 413.434 334.282C413.434 331.146 412.216 329.396 410.074 329.396C407.918 329.396 406.714 331.146 406.714 334.282ZM407.722 334.282C407.722 331.636 408.548 330.264 410.074 330.264C411.6 330.264 412.426 331.65 412.426 334.282C412.426 336.9 411.6 338.272 410.074 338.272C408.52 338.272 407.722 336.886 407.722 334.282ZM417.956 339.126C419.86 339.126 421.26 337.768 421.26 336.004C421.26 334.142 419.916 332.924 418.152 332.924C417.802 332.924 417.424 332.994 417.032 333.134L419.874 329.536H418.768L415.912 333.134C415.17 334.058 414.666 334.8 414.666 336.032C414.666 337.768 416.066 339.126 417.956 339.126ZM417.97 338.314C416.654 338.314 415.674 337.348 415.674 336.004C415.674 334.492 416.654 333.68 417.97 333.68C419.272 333.68 420.252 334.618 420.252 336.032C420.252 337.348 419.272 338.314 417.97 338.314Z" fill="#212123" fill-opacity="0.4"/>
<path d="M69 242L126 225.5L168 160.5L247 113.5L308.5 136L372 100L411.5 34.5" stroke="#EBC600" stroke-dasharray="5 5"/>
</svg>
