<svg width="95" height="15" viewBox="0 0 95 15" fill="none" xmlns="http://www.w3.org/2000/svg">
<g clip-path="url(#clip0_517_263)">
<path d="M14.602 5.36516L9.99072 4.66078L7.92384 0.258281C7.76947 -0.0704688 7.23009 -0.0704688 7.07572 0.258281L5.00947 4.66078L0.398218 5.36516C0.0194683 5.42328 -0.131782 5.88391 0.133843 6.15578L3.48384 9.58953L2.69197 14.4439C2.62884 14.8295 3.04072 15.1189 3.38134 14.9295L7.50009 12.6533L11.6188 14.9302C11.9563 15.1177 12.372 14.8339 12.3082 14.4445L11.5163 9.59016L14.8663 6.15641C15.132 5.88391 14.9801 5.42328 14.602 5.36516Z" fill="#FFE70C"/>
</g>
<g clip-path="url(#clip1_517_263)">
<path d="M34.602 5.36516L29.9907 4.66078L27.9238 0.258281C27.7695 -0.0704688 27.2301 -0.0704688 27.0757 0.258281L25.0095 4.66078L20.3982 5.36516C20.0195 5.42328 19.8682 5.88391 20.1338 6.15578L23.4838 9.58953L22.692 14.4439C22.6288 14.8295 23.0407 15.1189 23.3813 14.9295L27.5001 12.6533L31.6188 14.9302C31.9563 15.1177 32.372 14.8339 32.3082 14.4445L31.5163 9.59016L34.8663 6.15641C35.132 5.88391 34.9801 5.42328 34.602 5.36516Z" fill="#FFE70C"/>
</g>
<g clip-path="url(#clip2_517_263)">
<path d="M54.602 5.36516L49.9907 4.66078L47.9238 0.258281C47.7695 -0.0704688 47.2301 -0.0704688 47.0757 0.258281L45.0095 4.66078L40.3982 5.36516C40.0195 5.42328 39.8682 5.88391 40.1338 6.15578L43.4838 9.58953L42.692 14.4439C42.6288 14.8295 43.0407 15.1189 43.3813 14.9295L47.5001 12.6533L51.6188 14.9302C51.9563 15.1177 52.372 14.8339 52.3082 14.4445L51.5163 9.59016L54.8663 6.15641C55.132 5.88391 54.9801 5.42328 54.602 5.36516Z" fill="#FFE70C"/>
</g>
<g clip-path="url(#clip3_517_263)">
<path d="M74.602 5.36516L69.9907 4.66078L67.9238 0.258281C67.7695 -0.0704688 67.2301 -0.0704688 67.0757 0.258281L65.0095 4.66078L60.3982 5.36516C60.0195 5.42328 59.8682 5.88391 60.1338 6.15578L63.4838 9.58953L62.692 14.4439C62.6288 14.8295 63.0407 15.1189 63.3813 14.9295L67.5001 12.6533L71.6188 14.9302C71.9563 15.1177 72.372 14.8339 72.3082 14.4445L71.5163 9.59016L74.8663 6.15641C75.132 5.88391 74.9801 5.42328 74.602 5.36516Z" fill="#FFE70C"/>
</g>
<g clip-path="url(#clip4_517_263)">
<path d="M94.602 5.36516L89.9907 4.66078L87.9238 0.258281C87.7695 -0.0704688 87.2301 -0.0704688 87.0757 0.258281L85.0095 4.66078L80.3982 5.36516C80.0195 5.42328 79.8682 5.88391 80.1338 6.15578L83.4838 9.58953L82.692 14.4439C82.6288 14.8295 83.0407 15.1189 83.3813 14.9295L87.5001 12.6533L91.6188 14.9302C91.9563 15.1177 92.372 14.8339 92.3082 14.4445L91.5163 9.59016L94.8663 6.15641C95.132 5.88391 94.9801 5.42328 94.602 5.36516Z" fill="#FFE70C"/>
</g>
<defs>
<clipPath id="clip0_517_263">
<rect width="15" height="15" fill="white"/>
</clipPath>
<clipPath id="clip1_517_263">
<rect width="15" height="15" fill="white" transform="translate(20)"/>
</clipPath>
<clipPath id="clip2_517_263">
<rect width="15" height="15" fill="white" transform="translate(40)"/>
</clipPath>
<clipPath id="clip3_517_263">
<rect width="15" height="15" fill="white" transform="translate(60)"/>
</clipPath>
<clipPath id="clip4_517_263">
<rect width="15" height="15" fill="white" transform="translate(80)"/>
</clipPath>
</defs>
</svg>
