<svg width="20" height="21" viewBox="0 0 20 21" fill="none" xmlns="http://www.w3.org/2000/svg">
<path d="M20 3.88664C19.2563 4.21289 18.4637 4.42914 17.6375 4.53414C18.4875 4.02664 19.1363 3.22914 19.4412 2.26789C18.6488 2.74039 17.7738 3.07414 16.8412 3.26039C16.0887 2.45914 15.0162 1.96289 13.8462 1.96289C11.5763 1.96289 9.74875 3.80539 9.74875 6.06414C9.74875 6.38914 9.77625 6.70164 9.84375 6.99914C6.435 6.83289 3.41875 5.19914 1.3925 2.71039C1.03875 3.32414 0.83125 4.02664 0.83125 4.78289C0.83125 6.20289 1.5625 7.46164 2.6525 8.19039C1.99375 8.17789 1.3475 7.98664 0.8 7.68539C0.8 7.69789 0.8 7.71414 0.8 7.73039C0.8 9.72289 2.22125 11.3779 4.085 11.7591C3.75125 11.8504 3.3875 11.8941 3.01 11.8941C2.7475 11.8941 2.4825 11.8791 2.23375 11.8241C2.765 13.4479 4.2725 14.6416 6.065 14.6804C4.67 15.7716 2.89875 16.4291 0.98125 16.4291C0.645 16.4291 0.3225 16.4141 0 16.3729C1.81625 17.5441 3.96875 18.2129 6.29 18.2129C13.835 18.2129 17.96 11.9629 17.96 6.54539C17.96 6.36414 17.9538 6.18914 17.945 6.01539C18.7588 5.43789 19.4425 4.71664 20 3.88664Z" fill="#6F00EB"/>
</svg>
