<svg width="39" height="39" viewBox="0 0 39 39" fill="none" xmlns="http://www.w3.org/2000/svg">
<g clip-path="url(#clip0_33_23)">
<path d="M14.8875 13.5264L9.8688 25.5021H6.59313L4.12514 15.9457C3.9732 15.3564 3.84336 15.142 3.38777 14.8917C2.64149 14.4882 1.41393 14.1098 0.330078 13.874L0.405934 13.5264H5.67611C6.34826 13.5264 6.95256 13.9748 7.1045 14.7476L8.40948 21.6789L11.6327 13.5264L14.8875 13.5264ZM27.7184 21.5903C27.7329 18.4313 23.3473 18.2594 23.3788 16.8461C23.3873 16.4147 23.7962 15.9582 24.6916 15.843C25.1363 15.7838 26.3599 15.7405 27.7468 16.3772L28.2904 13.8388C27.5442 13.568 26.585 13.3086 25.3929 13.3086C22.331 13.3086 20.1755 14.9372 20.1573 17.2675C20.1373 18.9907 21.6952 19.9523 22.8703 20.5262C24.077 21.1135 24.4805 21.4884 24.4762 22.0151C24.4683 22.8189 23.5134 23.1701 22.6228 23.1859C21.0648 23.2102 20.1612 22.7649 19.4396 22.4289L18.8787 25.0545C19.6015 25.3864 20.9398 25.6745 22.3249 25.6915C25.5792 25.6914 27.7081 24.0801 27.7184 21.5903ZM35.8042 25.5021H38.6701L36.1694 13.5264H33.5237C32.9292 13.5264 32.428 13.8731 32.2047 14.4043L27.5588 25.5021H30.8106L31.4561 23.7136H35.431L35.8042 25.5021ZM32.3473 21.2591L33.9787 16.7623L34.9172 21.2591H32.3473ZM19.3147 13.5264L16.7515 25.5021H13.6529L16.2168 13.5264H19.3147Z" fill="#1A2ADF"/>
</g>
<defs>
<clipPath id="clip0_33_23">
<rect width="38.34" height="38.34" fill="white" transform="translate(0.330078 0.329956)"/>
</clipPath>
</defs>
</svg>
