<svg width="20" height="21" viewBox="0 0 20 21" fill="none" xmlns="http://www.w3.org/2000/svg">
<g clip-path="url(#clip0_116_1004)">
<path d="M19.5879 5.28686C19.3574 4.43008 18.6819 3.75473 17.8252 3.52402C16.2602 3.0957 9.99981 3.0957 9.99981 3.0957C9.99981 3.0957 3.73961 3.0957 2.17452 3.50769C1.33438 3.73825 0.642392 4.43023 0.411833 5.28686C0 6.85179 0 10.0973 0 10.0973C0 10.0973 0 13.3592 0.411833 14.9078C0.642545 15.7644 1.3179 16.4399 2.17467 16.6706C3.75609 17.0989 9.99996 17.0989 9.99996 17.0989C9.99996 17.0989 16.2602 17.0989 17.8252 16.687C18.682 16.4564 19.3574 15.7809 19.5881 14.9243C19.9999 13.3592 19.9999 10.1138 19.9999 10.1138C19.9999 10.1138 20.0164 6.85179 19.5879 5.28686Z" fill="#6F00EB"/>
<path d="M8.00586 13.0953L13.2117 10.097L8.00586 7.09863V13.0953Z" fill="white"/>
</g>
<defs>
<clipPath id="clip0_116_1004">
<rect width="20" height="20" fill="white" transform="translate(0 0.0878906)"/>
</clipPath>
</defs>
</svg>
